<?xml version="1.0" encoding="UTF-8" standalone="no"?>
<!-- Created with Inkscape (http://www.inkscape.org/) -->

<svg
   width="1000"
   height="1000"
   viewBox="0 0 264.58333 264.58333"
   version="1.1"
   id="svg5"
   sodipodi:docname="k覺j覺.svg"
   inkscape:version="1.2.2 (b0a8486541, 2022-12-01)"
   inkscape:export-filename="k覺j覺.png"
   inkscape:export-xdpi="38.400002"
   inkscape:export-ydpi="38.400002"
   xmlns:inkscape="http://www.inkscape.org/namespaces/inkscape"
   xmlns:sodipodi="http://sodipodi.sourceforge.net/DTD/sodipodi-0.dtd"
   xmlns="http://www.w3.org/2000/svg"
   xmlns:svg="http://www.w3.org/2000/svg">
  <sodipodi:namedview
     id="namedview7"
     pagecolor="#ffffff"
     bordercolor="#666666"
     borderopacity="1.0"
     inkscape:showpageshadow="2"
     inkscape:pageopacity="0.0"
     inkscape:pagecheckerboard="0"
     inkscape:deskcolor="#d1d1d1"
     inkscape:document-units="mm"
     showgrid="false"
     inkscape:zoom="0.08"
     inkscape:cx="1193.75"
     inkscape:cy="600"
     inkscape:window-width="1900"
     inkscape:window-height="995"
     inkscape:window-x="26"
     inkscape:window-y="23"
     inkscape:window-maximized="0"
     inkscape:current-layer="layer1" />
  <defs
     id="defs2">
    <inkscape:path-effect
       effect="simplify"
       id="path-effect13696"
       is_visible="true"
       lpeversion="1"
       steps="1"
       threshold="0.00243902"
       smooth_angles="360"
       helper_size="0"
       simplify_individual_paths="false"
       simplify_just_coalesce="false" />
  </defs>
  <g
     inkscape:label="Layer 1"
     inkscape:groupmode="layer"
     id="layer1">
    <path
       id="path13723"
       style="color:#000000;fill:#de4054;fill-opacity:1;fill-rule:evenodd;stroke-width:1;stroke-linecap:round;-inkscape-stroke:none;paint-order:stroke fill markers"
       d="m 1.5712734,100.96974 c -1.39346329,24.68276 16.6076176,44.79567 39.9806786,44.67021 10.77058,-0.0578 20.883199,-4.40627 28.795627,-11.49096 l -5.38846,-14.865 c -4.694079,7.22455 -13.956549,9.31426 -22.692672,9.36114 -13.546266,0.0727 -23.32014,-13.46741 -22.51253,-27.77275 0.807604,-14.305312 12.237635,-25.756214 25.783902,-25.828919 2.021102,-0.01085 3.963632,0.237131 5.808159,0.706137 L 60.819945,52.457917 C 12.477745,47.4778 2.9428978,84.757899 1.5712734,100.96974 Z"
       sodipodi:nodetypes="csccsssccc" />
    <path
       id="path13720"
       style="color:#000000;fill:#e25162;fill-opacity:1;fill-rule:evenodd;stroke:none;stroke-width:1.31762;stroke-linecap:round;stroke-dasharray:none;stroke-opacity:1;paint-order:stroke fill markers"
       d="m 76.984171,148.28302 c -17.764563,3.1583 -31.623015,16.73836 -32.432874,36.96257 -1.035606,25.86169 20.424025,47.82018 39.111078,46.33218 11.823612,-0.94149 26.131555,-10.38226 31.806425,-17.1346 l -12.73732,-20.69709 c -3.097743,6.58108 -13.950667,13.98024 -20.908267,14.80866 -10.788483,1.28459 -19.880437,-7.45879 -20.509938,-19.72401 -0.629503,-12.2652 7.459976,-23.05634 18.24846,-24.34093 1.609642,-0.19161 4.636759,-0.51271 6.148392,-0.27943 l -8.37345,-15.98471 c -0.117417,0.0194 -0.235428,0.0369 -0.352506,0.0574 z"
       sodipodi:nodetypes="sssccsscccss" />
    <path
       style="color:#000000;fill:#de4054;fill-opacity:1;fill-rule:evenodd;stroke-width:1;-inkscape-stroke:none;paint-order:stroke fill markers"
       d="m 115.7356,35.791797 c -3.12883,0.126919 -6.18976,0.584713 -9.10545,1.311023 -13.233208,3.296445 -24.764039,13.176888 -30.629874,27.391431 -5.865836,14.214543 -5.766668,32.318372 1.788043,50.874149 8.58049,21.07528 41.056161,73.17987 41.056161,73.17987 l 10.32923,-8.59928 c 0,0 -26.28471,-58.68604 -32.396082,-74.93961 -4.066134,-10.814163 -3.312939,-17.111628 -0.957249,-23.920059 2.529684,-7.311256 9.661061,-13.199345 16.445091,-14.873614 6.66319,-1.644445 16.01481,-0.120179 22.20129,5.5202 5.15123,4.696494 11.90126,11.780113 13.37202,31.350233 l 12.00392,0.19011 c 1.3963,-18.811168 6.75869,-27.23014 12.52341,-32.353741 6.42347,-5.7091 18.22789,-7.307809 25.89686,-2.764785 4.91376,2.910863 8.85746,10.950917 9.26096,19.0985 0.47541,9.599728 -0.87321,15.575156 -7.65485,32.136586 -8.92083,21.78556 -24.85783,44.35755 -73.51599,84.68688 l 9.03098,24.52168 c 51.17869,-42.41842 74.97706,-74.83737 84.87313,-99.00451 8.15778,-19.92213 10.81759,-38.076984 8.65383,-53.506335 -2.16377,-15.42937 -9.66414,-28.423067 -21.01594,-34.713692 -13.18522,-7.306614 -29.40778,-6.659712 -42.265,3.005609 -4.52254,3.399783 -8.51176,7.877767 -11.90868,13.238075 -2.8824,-4.888164 -6.22318,-9.039975 -10.04168,-12.300471 -8.55526,-7.305106 -18.55766,-9.909005 -27.94413,-9.528249 z"
       id="path10261"
       sodipodi:nodetypes="ssssccssssccssssccsssscss" />
    <ellipse
       style="fill:#ec5e70;fill-opacity:1;fill-rule:evenodd;stroke:none;stroke-width:23.8317;stroke-linecap:butt;stroke-dasharray:none;stroke-opacity:1;paint-order:stroke fill markers"
       id="path10990"
       cx="55.819183"
       cy="100.30348"
       rx="10.885604"
       ry="13.824809"
       transform="matrix(0.99927896,0.03796794,-0.09480575,0.99549579,0,0)" />
    <path
       id="path13727"
       style="color:#000000;fill:#e25162;fill-opacity:1;fill-rule:evenodd;stroke-width:0.999992;stroke-linecap:round;-inkscape-stroke:none;paint-order:stroke fill markers"
       d="m 236.85412,149.28283 c -18.09725,-0.88384 -40.27151,19.80817 -39.08108,44.03248 1.04013,21.166 19.62672,38.34881 37.43381,37.48075 8.20571,-0.40002 22.66672,-9.27522 28.53109,-15.60068 l -9.21697,-20.00244 c -3.4088,6.34051 -14.46682,12.46662 -21.12256,12.79107 -10.32042,0.50311 -18.10045,-6.9536 -17.81783,-19.23229 0.28262,-12.27866 8.7258,-22.45823 19.04621,-22.96134 1.53981,-0.075 4.43277,-0.17694 5.8492,0.16476 l -3.28357,-16.70409 c -0.10853,0.0323 -0.22538,0.0229 -0.3383,0.0318 z"
       sodipodi:nodetypes="cssccssccccc" />
    <path
       style="color:#000000;fill:#ff6c83;fill-opacity:1;fill-rule:evenodd;stroke-width:1;-inkscape-stroke:none;paint-order:stroke fill markers"
       d="m 122.86009,58.237183 c -2.55764,0.103752 -5.05978,0.477968 -7.44319,1.071685 -10.81739,2.694655 -20.243176,10.771349 -25.038159,22.390922 -4.794984,11.619572 -4.71392,26.41842 1.461622,41.5867 7.014057,17.22783 33.561057,59.82034 33.561057,59.82034 l 8.44355,-7.02941 c 0,0 -21.48625,-47.97247 -26.48194,-61.25884 -3.32383,-8.83995 -2.70813,-13.98777 -0.7825,-19.553274 2.06788,-5.976531 7.89737,-10.789706 13.44292,-12.158324 5.44677,-1.34424 13.0912,-0.09825 18.14829,4.512446 4.21082,3.839114 9.72859,9.629565 10.93085,25.627022 l 9.81252,0.1554 c 1.14139,-15.377053 5.52484,-22.259079 10.23716,-26.447329 5.25082,-4.666861 14.90026,-5.973714 21.1692,-2.260052 4.01673,2.379463 7.24047,8.951745 7.5703,15.611921 0.38862,7.84723 -0.7138,12.73181 -6.2574,26.26983 -7.29226,17.80843 -17.35266,37.54662 -57.12792,70.51354 l 8.8307,15.13182 c 41.83563,-34.67462 56.87387,-57.5489 64.96333,-77.30414 6.66853,-16.2852 8.84277,-31.12575 7.07402,-43.738362 -1.76876,-12.612624 -7.89988,-23.234225 -17.17933,-28.376451 -10.77815,-5.972736 -24.03917,-5.44393 -34.54921,2.456914 -3.69691,2.779127 -6.95787,6.439622 -9.73466,10.821366 -2.35619,-3.995793 -5.08709,-7.389661 -8.20848,-10.054929 -6.99344,-5.971505 -15.16983,-8.100041 -22.84273,-7.788795 z"
       id="path14700"
       sodipodi:nodetypes="ssssccssssccssssccsssscss" />
  </g>
</svg>
