<?xml version="1.0" encoding="UTF-8" standalone="no"?>
<!-- Created with Inkscape (http://www.inkscape.org/) -->

<svg
   width="1000"
   height="1000"
   viewBox="0 0 264.58333 264.58333"
   version="1.1"
   id="svg5"
   sodipodi:docname="noga.svg"
   inkscape:version="1.2.2 (b0a8486541, 2022-12-01)"
   inkscape:export-filename="noga.png"
   inkscape:export-xdpi="38.400002"
   inkscape:export-ydpi="38.400002"
   xmlns:inkscape="http://www.inkscape.org/namespaces/inkscape"
   xmlns:sodipodi="http://sodipodi.sourceforge.net/DTD/sodipodi-0.dtd"
   xmlns="http://www.w3.org/2000/svg"
   xmlns:svg="http://www.w3.org/2000/svg">
  <sodipodi:namedview
     id="namedview7"
     pagecolor="#ffffff"
     bordercolor="#666666"
     borderopacity="1.0"
     inkscape:showpageshadow="2"
     inkscape:pageopacity="0.0"
     inkscape:pagecheckerboard="0"
     inkscape:deskcolor="#d1d1d1"
     inkscape:document-units="mm"
     showgrid="false"
     showguides="true"
     inkscape:zoom="0.11313708"
     inkscape:cx="402.16698"
     inkscape:cy="35.355339"
     inkscape:window-width="1900"
     inkscape:window-height="995"
     inkscape:window-x="26"
     inkscape:window-y="23"
     inkscape:window-maximized="0"
     inkscape:current-layer="text4870" />
  <defs
     id="defs2" />
  <g
     inkscape:label="Layer 1"
     inkscape:groupmode="layer"
     id="layer1">
    <g
       aria-label="󱚵󱛃
󱛃󱚺"
       id="text4870"
       style="font-size:94.1772px;line-height:1.25;font-family:Twemoji;-inkscape-font-specification:Twemoji;letter-spacing:0px;stroke-width:0.264583">
      <path
         style="font-family:Derani;-inkscape-font-specification:Derani;fill:#b02d5f;fill-opacity:1;stroke:none;stroke-width:0.264583"
         d="M 104.52197,2.1612648 C 89.34168,-2.0203138 73.878596,0.40587249 57.895503,9.3744892 41.912418,18.343104 29.979462,31.369068 22.440034,48.27955 26.262845,39.705219 34.903929,34.062703 48.232292,31.048483 61.666845,27.796091 75.749475,28.466181 90.929759,32.647764 Z"
         id="path6395" />
      <path
         d="m 92.352108,260.52951 c 12.815812,-5.4211 22.650782,-14.88742 29.705152,-28.48373 l 1.53281,-3.19532 c 0.79646,0.72433 1.55373,1.25297 2.47212,1.50126 10.76762,6.05759 22.75963,6.29115 35.57544,0.87006 6.20768,-2.62576 11.98027,-6.3411 17.23953,-11.53722 5.13732,-4.72003 9.19965,-10.47109 12.66585,-17.0312 l -19.94244,-10.66651 c -1.93335,3.36476 -3.98408,6.14243 -6.3525,8.41776 -2.52952,2.55568 -5.41581,4.41335 -8.61975,5.76859 -6.40791,2.71053 -15.13306,2.16189 -21.03775,-0.0163 -6.42068,-1.6519 -17.66004,-9.65841 -22.05578,-18.50097 l -2.58554,0.29799 c 2.36461,9.44843 -2.31536,23.48254 -5.78154,30.04265 -3.38792,6.95151 -11.417028,14.77372 -17.824935,17.48426 -6.407903,2.71051 -12.484454,2.73396 -17.907406,-0.49054 -5.544954,-2.74841 -10.280573,-10.40009 -11.689446,-17.44501 -1.369735,-6.84921 -1.868772,-16.6753 0.217157,-24.12839 1.984774,-7.15274 12.659121,-30.54828 18.462912,-34.33295 l -9.749279,-2.2938 c -11.607563,7.56944 -23.622891,15.86962 -30.94186,32.52233 -6.063559,14.07527 -5.357211,24.40191 -2.617741,38.10038 2.778614,13.89414 12.49139,26.35826 23.659546,32.24648 10.767625,6.05758 22.759616,6.29114 35.575444,0.87007 z"
         style="font-family:Derani;-inkscape-font-specification:Derani;fill:#e66294;fill-opacity:1;stroke:none;stroke-width:0.264583"
         id="path4928"
         sodipodi:nodetypes="scccsccccsccccscsccccscss" />
      <path
         id="path6393"
         style="font-family:Derani;-inkscape-font-specification:Derani;fill:#ca3a75;fill-opacity:1;stroke:none;stroke-width:0.264584"
         d="m 56.992903,44.628057 c -3.74332,0.363642 -7.580618,1.250719 -11.51648,2.662944 C 31.482247,52.31224 20.613303,62.403876 12.651222,77.643518 4.5080351,93.195787 1.9883142,109.20662 4.6169153,125.59933 c 2.6661594,16.62689 9.7292927,28.95211 21.6651797,37.05217 11.498574,8.25699 24.464082,9.79615 38.458254,4.7749 13.994178,-5.02123 24.863083,-15.11217 32.825166,-30.35182 C 105.5276,121.83495 108.30328,105.97915 105.63711,89.352275 102.97095,72.725383 95.651284,60.244489 83.934056,52.065962 75.512295,46.187654 66.559164,43.69875 56.992903,44.628057 Z m -1.576307,31.395919 c 5.019134,-0.605202 9.692808,0.689759 14.004773,3.786129 5.786834,4.362668 9.536899,10.447179 10.851203,18.643524 1.351852,8.430541 -0.145151,16.397301 -4.054413,23.743721 -3.834159,7.81477 -9.287239,12.74329 -16.284328,15.25391 -6.997097,2.51058 -13.570214,1.89685 -19.357054,-2.46583 -5.930394,-3.81584 -9.462123,-9.9781 -10.813978,-18.40864 -1.314304,-8.19637 -0.03567,-16.08469 4.017153,-23.977907 3.871714,-7.580594 9.505901,-12.822115 16.50299,-15.332737 1.749272,-0.627657 3.460611,-1.040437 5.133654,-1.24217 z" />
      <path
         d="m 213.23539,187.04055 c -4.62179,4.60092 -9.89664,6.74959 -15.74082,5.84553 -5.78348,-0.44742 -10.44914,-3.55881 -14.14149,-9.19029 -3.58982,-5.47505 -5.078,-11.74961 -4.42277,-19.12375 0.61334,-7.07389 3.32407,-13.1333 7.94585,-17.73423 4.62179,-4.6009 9.85475,-6.44937 15.59637,-5.70171 5.84417,0.90404 10.65432,3.87164 14.2441,9.34671 3.69236,5.63151 5.03609,12.04982 4.32018,18.9673 -0.51081,7.23033 -3.17963,12.98957 -7.80143,17.59044 z m 13.12833,20.02318 c 9.24356,-9.20184 14.47873,-20.87667 15.84988,-35.16828 1.37113,-14.29161 -1.46087,-26.98436 -8.74297,-38.09097 -7.28218,-11.10657 -16.86045,-17.34206 -28.48818,-18.69348 -11.62762,-1.35148 -21.99105,2.50178 -31.23461,11.70363 -9.24358,9.20187 -14.47874,20.87672 -15.84988,35.1683 -1.41299,14.5918 1.66598,27.29723 8.84555,38.24745 7.28217,11.10656 16.61349,17.32933 28.38559,18.53702 11.48319,1.49528 21.99104,-2.5018 31.23462,-11.70367 z"
         style="font-family:Derani;-inkscape-font-specification:Derani;fill:#e66294;fill-opacity:1;stroke:none;stroke-width:0.264583"
         id="path4930" />
      <path
         d="m 165.05208,131.27038 c 13.99417,-5.02124 24.863,-15.11247 32.82507,-30.35211 l 1.73597,-3.594766 c 0.84374,0.935545 1.64994,1.636885 2.63722,2.025615 11.49857,8.256981 24.59672,10.152871 38.45785,4.775161 22.36591,-8.677313 20.3687,-30.143908 20.09174,-40.266725 -0.94834,-10.800998 -4.08695,-14.345905 -6.86069,-22.191808 l -6.18896,2.663361 c 1.89148,5.933866 1.27184,9.520453 0.54887,13.772164 -0.77471,5.39915 -6.53371,11.761784 -12.39758,16.047723 -6.00165,4.38665 -12.16384,5.762682 -20.26055,3.388765 -8.78398,-1.90737 -14.07333,-8.348345 -22.53794,-20.597249 l -2.16112,0.331643 c -3.80312,15.579923 -5.01116,22.764887 -11.21482,29.50425 -5.64686,8.352821 -12.48457,12.008055 -19.48167,14.518696 -6.99711,2.51059 -13.57016,1.89727 -19.35701,-2.465431 -5.93039,-3.815851 -9.46221,-9.978275 -10.81406,-18.408825 -1.31436,-8.196344 -0.28762,-21.026686 3.28223,-31.019361 2.57999,-7.661272 11.11843,-20.571149 19.35446,-26.226941 l -6.92296,-12.039445 c -13.99417,5.021242 -24.86301,15.112469 -32.82508,30.352124 -8.14319,15.552294 -10.66307,31.563448 -8.03445,47.956177 2.66616,16.626922 9.72975,28.951762 21.66566,37.051852 11.49857,8.25696 24.46363,9.79639 38.45782,4.77513 z"
         style="font-family:Derani;-inkscape-font-specification:Derani;fill:#ca3a75;fill-opacity:1;stroke:none;stroke-width:0.264584"
         id="path4926"
         sodipodi:nodetypes="scccsccccscccccccccccscs" />
    </g>
  </g>
</svg>
