<?xml version="1.0" encoding="UTF-8" standalone="no"?>
<!-- Created with Inkscape (http://www.inkscape.org/) -->

<svg
   width="1000"
   height="1000"
   viewBox="0 0 264.58333 264.58333"
   version="1.1"
   id="svg5"
   sodipodi:docname="noga.svg"
   inkscape:version="1.2.2 (b0a8486541, 2022-12-01)"
   xmlns:inkscape="http://www.inkscape.org/namespaces/inkscape"
   xmlns:sodipodi="http://sodipodi.sourceforge.net/DTD/sodipodi-0.dtd"
   xmlns="http://www.w3.org/2000/svg"
   xmlns:svg="http://www.w3.org/2000/svg">
  <sodipodi:namedview
     id="namedview7"
     pagecolor="#ffffff"
     bordercolor="#666666"
     borderopacity="1.0"
     inkscape:showpageshadow="2"
     inkscape:pageopacity="0.0"
     inkscape:pagecheckerboard="0"
     inkscape:deskcolor="#d1d1d1"
     inkscape:document-units="mm"
     showgrid="false"
     showguides="true"
     inkscape:zoom="0.02"
     inkscape:cx="875"
     inkscape:cy="500"
     inkscape:window-width="1900"
     inkscape:window-height="995"
     inkscape:window-x="26"
     inkscape:window-y="23"
     inkscape:window-maximized="0"
     inkscape:current-layer="text4870" />
  <defs
     id="defs2" />
  <g
     inkscape:label="Layer 1"
     inkscape:groupmode="layer"
     id="layer1">
    <g
       aria-label="󱚵󱛃
󱛃󱚺"
       id="text4870"
       style="font-size:94.1772px;line-height:1.25;font-family:Twemoji;-inkscape-font-specification:Twemoji;letter-spacing:0px;stroke-width:0.264583">
      <path
         style="font-family:Derani;-inkscape-font-specification:Derani;fill:#b02d5f;fill-opacity:1;stroke:none;stroke-width:0.264583"
         d="M 108.06081,20.574949 C 94.815033,16.926252 81.322495,19.043256 67.376216,26.868952 53.429944,34.694647 43.01767,46.060641 36.439033,60.816127 39.774682,53.33447 47.314585,48.411011 58.944441,45.78091 70.666955,42.942988 82.954958,43.527685 96.200735,47.176386 Z"
         id="path6395" />
      <path
         d="m 97.441826,246.0179 c 11.182624,-4.73026 19.764264,-12.99023 25.919654,-24.85389 l 1.33748,-2.78812 c 0.69496,0.63202 1.35573,1.0933 2.15708,1.30995 9.39545,5.28563 19.85925,5.48943 31.04187,0.75918 5.4166,-2.29115 10.45356,-5.53302 15.0426,-10.06697 4.48264,-4.11853 8.02729,-9.1367 11.05177,-14.86082 l -17.40106,-9.30722 c -1.68698,2.93597 -3.47637,5.35967 -5.54297,7.34504 -2.20717,2.23 -4.72564,3.85093 -7.52129,5.03347 -5.59131,2.36511 -13.20457,1.88639 -18.35679,-0.0142 -5.60246,-1.44139 -15.40952,-8.42758 -19.24509,-16.14329 l -2.25605,0.26002 c 2.06327,8.24436 -2.0203,20.49003 -5.04477,26.21415 -2.95618,6.06564 -9.962088,12.89102 -15.5534,15.25614 -5.591309,2.3651 -10.893491,2.38556 -15.625367,-0.42803 -4.83833,-2.39816 -8.970463,-9.07475 -10.199795,-15.22189 -1.195182,-5.97638 -1.630624,-14.55028 0.189483,-21.05358 1.731844,-6.24123 11.0459,-26.65534 16.110082,-29.95771 l -8.506875,-2.00149 c -10.128347,6.60482 -20.612496,13.84727 -26.998768,28.37783 -5.290846,12.28158 -4.674512,21.29224 -2.284148,33.24504 2.42452,12.12353 10.899543,22.99928 20.64448,28.13713 9.395447,5.28563 19.859232,5.48943 31.041869,0.75919 z"
         style="font-family:Derani;-inkscape-font-specification:Derani;stroke-width:0.264583;stroke:none;fill:#e66294;fill-opacity:1"
         id="path4928"
         sodipodi:nodetypes="scccsccccsccccscsccccscss" />
      <path
         id="path6393"
         style="font-family:Derani;-inkscape-font-specification:Derani;stroke-width:0.264584;stroke:none;fill:#ca3a75;fill-opacity:1"
         d="m 66.588639,57.629964 c -3.266288,0.317301 -6.614578,1.091333 -10.048871,2.32359 -12.210821,4.381355 -21.694676,13.186958 -28.642105,26.484529 -7.105456,13.570357 -9.304075,27.540837 -7.010451,41.844537 2.326396,14.50803 8.489436,25.26258 18.904267,32.33041 10.033247,7.20475 21.346489,8.54777 33.557307,4.16641 12.210822,-4.38135 21.694643,-13.18635 28.642074,-26.48392 6.94743,-13.29756 9.36939,-27.13277 7.04298,-41.640792 C 106.70745,82.146693 100.32057,71.256308 90.096533,64.120016 82.748003,58.990813 74.935819,56.819084 66.588639,57.629964 Z M 65.21321,85.024928 c 4.379518,-0.528078 8.4576,0.601859 12.220067,3.303642 5.049386,3.806709 8.32156,9.115837 9.468375,16.26768 1.179578,7.35619 -0.126654,14.3077 -3.537737,20.71792 -3.345551,6.81889 -8.103715,11.11935 -14.209126,13.31002 -6.105419,2.19065 -11.840887,1.65513 -16.890278,-2.15159 -5.174651,-3.32957 -8.256313,-8.70654 -9.435893,-16.06273 -1.146815,-7.15186 -0.03112,-14.03493 3.505225,-20.922267 3.37832,-6.614557 8.294511,-11.188122 14.399923,-13.378802 1.526352,-0.547671 3.019606,-0.907848 4.479444,-1.083873 z" />
      <path
         d="m 202.92028,181.89405 c -4.03281,4.0146 -8.63545,5.88945 -13.73488,5.1006 -5.04646,-0.3904 -9.11755,-3.10529 -12.33936,-8.01912 -3.13235,-4.77734 -4.43088,-10.25229 -3.85915,-16.68671 0.53518,-6.17242 2.90046,-11.45965 6.93326,-15.47426 4.03281,-4.01458 8.59891,-5.62749 13.60884,-4.97511 5.09942,0.78884 9.29658,3.37826 12.4289,8.15561 3.22182,4.91386 4.39431,10.51425 3.76963,16.55019 -0.44571,6.30893 -2.77443,11.33424 -6.80725,15.3488 z m 11.45532,17.47151 c 8.0656,-8.0292 12.63362,-18.21624 13.83004,-30.68659 1.1964,-12.47035 -1.2747,-23.54559 -7.62881,-33.23683 -6.35417,-9.6912 -14.71183,-15.13206 -24.85777,-16.31126 -10.14585,-1.17926 -19.18861,2.18296 -27.25421,10.21217 -8.06562,8.02922 -12.63364,18.21628 -13.83004,30.68661 -1.23293,12.73228 1.45367,23.81859 7.71831,33.37336 6.35416,9.69119 14.49634,15.12096 24.76826,16.17475 10.01982,1.30473 19.1886,-2.18298 27.25422,-10.21221 z"
         style="font-family:Derani;-inkscape-font-specification:Derani;stroke-width:0.264583;stroke:none;fill:#e66294;fill-opacity:1"
         id="path4930" />
      <path
         d="m 160.87724,133.23098 c 12.21081,-4.38136 21.69457,-13.18661 28.64199,-26.48418 l 1.51474,-3.13666 c 0.73622,0.81632 1.43968,1.42829 2.30115,1.76748 10.03324,7.20475 21.46222,8.85903 33.55695,4.16663 19.5157,-7.57151 17.77301,-26.302498 17.53134,-35.135309 -0.82749,-9.424567 -3.56613,-12.517727 -5.98639,-19.363784 l -5.40027,2.323955 c 1.65044,5.17768 1.10976,8.307209 0.47892,12.017101 -0.67598,4.711106 -5.70108,10.262915 -10.81768,14.002673 -5.23683,3.827635 -10.61374,5.028312 -17.67864,2.956916 -7.66459,-1.664303 -12.27989,-7.284469 -19.66581,-17.972428 l -1.88571,0.28938 c -3.31847,13.594487 -4.37256,19.863832 -9.78566,25.744361 -4.92725,7.288375 -10.89359,10.477805 -16.99901,12.668495 -6.10543,2.19065 -11.84084,1.65549 -16.89024,-2.15124 -5.17465,-3.32958 -8.25639,-8.706693 -9.43596,-16.062891 -1.14687,-7.151839 -0.25097,-18.34714 2.86395,-27.066393 2.25121,-6.684954 9.70155,-17.949654 16.88802,-22.884697 L 144.0682,28.405196 c -12.21082,4.381358 -21.69458,13.186604 -28.642,26.484186 -7.10546,13.570379 -9.30422,27.541144 -7.01058,41.844857 2.3264,14.508061 8.48984,25.262281 18.90469,32.330131 10.03324,7.20473 21.34609,8.54798 33.55693,4.16661 z"
         style="font-family:Derani;-inkscape-font-specification:Derani;stroke-width:0.264584;stroke:none;fill:#ca3a75;fill-opacity:1"
         id="path4926"
         sodipodi:nodetypes="scccsccccscccccccccccscs" />
    </g>
  </g>
</svg>
