<?xml version="1.0" encoding="UTF-8" standalone="no"?>
<!-- Created with Inkscape (http://www.inkscape.org/) -->

<svg
   width="1000"
   height="1000"
   viewBox="0 0 264.58333 264.58333"
   version="1.1"
   id="svg5"
   sodipodi:docname="ına.svg"
   inkscape:version="1.2.2 (b0a8486541, 2022-12-01)"
   inkscape:export-filename="noga.png"
   inkscape:export-xdpi="38.400002"
   inkscape:export-ydpi="38.400002"
   xmlns:inkscape="http://www.inkscape.org/namespaces/inkscape"
   xmlns:sodipodi="http://sodipodi.sourceforge.net/DTD/sodipodi-0.dtd"
   xmlns="http://www.w3.org/2000/svg"
   xmlns:svg="http://www.w3.org/2000/svg">
  <sodipodi:namedview
     id="namedview7"
     pagecolor="#ffffff"
     bordercolor="#666666"
     borderopacity="1.0"
     inkscape:showpageshadow="2"
     inkscape:pageopacity="0.0"
     inkscape:pagecheckerboard="0"
     inkscape:deskcolor="#d1d1d1"
     inkscape:document-units="mm"
     showgrid="false"
     showguides="true"
     inkscape:zoom="0.08"
     inkscape:cx="681.25"
     inkscape:cy="350"
     inkscape:window-width="1900"
     inkscape:window-height="995"
     inkscape:window-x="26"
     inkscape:window-y="23"
     inkscape:window-maximized="0"
     inkscape:current-layer="text4870" />
  <defs
     id="defs2" />
  <g
     inkscape:label="Layer 1"
     inkscape:groupmode="layer"
     id="layer1">
    <g
       aria-label="󱚵󱛃
󱛃󱚺"
       id="text4870"
       style="font-size:94.1772px;line-height:1.25;font-family:Twemoji;-inkscape-font-specification:Twemoji;letter-spacing:0px;stroke-width:0.264583">
      <path
         style="color:#000000;-inkscape-font-specification:Twemoji;fill:#289971;fill-rule:evenodd;stroke-linecap:square;stroke-linejoin:round;-inkscape-stroke:none;paint-order:stroke fill markers"
         d="m 181.33566,11.608284 -8.73567,0.0918 c -30.27725,0.198434 -55.05178,25.0345 -55.0586,55.291016 v 0.0039 c 3.6e-4,30.399506 25.00086,55.3046 55.42188,55.30469 h 0.01 c 10.87634,-0.008 22.4431,-3.8064 32.6836,-11.88671 10.2405,-8.08032 19.2693,-24.153717 20.30469,-37.757824 1.03539,-13.604107 -0.49315,-14.283762 -0.49315,-14.283762 l -27.71761,3.204638 c 0,0 0.67535,6.450956 0.48569,12.207254 -0.18968,5.756299 -3.22525,13.229615 -7.68762,19.034154 -4.55946,5.930835 -10.72043,10.38839 -17.59146,9.89423 -15.29688,-0.003 -27.35709,-20.522118 -27.35938,-35.712761 v -0.002 c 0,-6.64e-4 1e-5,-0.0013 0,-0.002 0.006,-15.117104 10.63275,-33.93642 25.81532,-35.054487 l 10.10591,-0.744215 z"
         id="path32170"
         sodipodi:nodetypes="ccssssszcczscsscscc" />
      <path
         style="color:#000000;-inkscape-font-specification:Twemoji;fill:#289953;fill-rule:evenodd;stroke-linecap:square;stroke-linejoin:round;-inkscape-stroke:none;paint-order:stroke fill markers"
         d="m 100.94382,111.83984 c -38.641596,0 -70.386726,31.651 -70.386726,70.27149 0,38.62049 31.74513,70.27344 70.386726,70.27344 38.64159,0 70.38672,-31.65295 70.38672,-70.27344 0,-38.62049 -31.74513,-70.27149 -70.38672,-70.27149 z m 0,25.02799 c 19.43701,0 33.71705,17.80788 33.71705,45.2435 0,30.23099 -14.28004,45.24545 -33.71705,45.24545 -19.437018,0 -33.71511,-16.82779 -33.71511,-45.24545 0,-26.0996 14.278092,-45.2435 33.71511,-45.2435 z"
         id="circle32898"
         sodipodi:nodetypes="ssssssssss" />
      <path
         style="color:#000000;-inkscape-font-specification:Twemoji;fill:#28998a;fill-rule:evenodd;stroke-linecap:square;stroke-linejoin:round;-inkscape-stroke:none;paint-order:stroke fill markers"
         d="m 218.15234,115.1875 c -25.01661,0 -45.58007,20.50146 -45.58007,45.50586 0,25.0044 20.56346,45.50586 45.58007,45.50586 25.01661,0 45.58008,-20.50146 45.58008,-45.50586 0,-25.0044 -20.56347,-45.50586 -45.58008,-45.50586 z m 0,17.67539 c 12.06063,0 20.49636,11.20301 20.49636,27.83047 0,16.01381 -8.43573,27.83047 -20.49636,27.83047 -12.06062,0 -20.49635,-11.76337 -20.49635,-27.83047 0,-15.73282 8.43573,-27.83047 20.49635,-27.83047 z"
         id="circle32900"
         sodipodi:nodetypes="ssssssssss" />
      <path
         style="color:#000000;-inkscape-font-specification:Twemoji;fill:#289943;fill-rule:evenodd;stroke-linecap:square;-inkscape-stroke:none;paint-order:stroke fill markers"
         d="m 96.40373,42.823689 -9.085938,8.927735 c 0,0 -41.276845,40.606954 -49.959642,54.860856 C 33.726556,94.054997 30.130469,88.105449 27.79625,82.140591 25.525893,76.338923 21.898793,69.618269 21.898793,69.618269 L 0.82755788,82.175252 7.2806829,93.157674 34.458417,139.42134 105.17521,69.923299 l 9.08594,-8.929688 z"
         id="path33628"
         sodipodi:nodetypes="cccsccccccc" />
    </g>
  </g>
</svg>
